HIERARCHY
ROOT ui
{
	 OFFSET 0 0 0
	 CHANNELS 3 XPosition YPosition Z Position
	 EndSite
	 {
	 OFFSET 0 -1 0
	 }
}
ROOT li
{
	 OFFSET 0 0 0
	 CHANNELS 3 XPosition YPosition Z Position
	 EndSite
	 {
	 OFFSET 0 -1 0
	 }
}
ROOT ul
{
	 OFFSET 0 0 0
	 CHANNELS 3 XPosition YPosition Z Position
	 EndSite
	 {
	 OFFSET 0 -1 0
	 }
}
ROOT ll
{
	 OFFSET 0 0 0
	 CHANNELS 3 XPosition YPosition Z Position
	 EndSite
	 {
	 OFFSET 0 -1 0
	 }
}
ROOT tt
{
	 OFFSET 0 0 0
	 CHANNELS 3 XPosition YPosition Z Position
	 EndSite
	 {
	 OFFSET 0 -1 0
	 }
}
ROOT tb
{
	 OFFSET 0 0 0
	 CHANNELS 3 XPosition YPosition Z Position
	 EndSite
	 {
	 OFFSET 0 -1 0
	 }
}
ROOT td
{
	 OFFSET 0 0 0
	 CHANNELS 3 XPosition YPosition Z Position
	 EndSite
	 {
	 OFFSET 0 -1 0
	 }
}
ROOT v
{
	 OFFSET 0 0 0
	 CHANNELS 3 XPosition YPosition Z Position
	 EndSite
	 {
	 OFFSET 0 -1 0
	 }
}
ROOT bn
{
	 OFFSET 0 0 0
	 CHANNELS 3 XPosition YPosition Z Position
	 EndSite
	 {
	 OFFSET 0 -1 0
	 }
}
MOTION
Frames: 32
Frame Time: 0.002
0.007882083892822266	-0.0011561110019683838	0		0.5100101623535156	-2.480823974609375	0		-1.19845166015625	0.058374427795410154	0		-0.8772600708007813	-2.725989990234375	0		1.3463802490234376	-0.9034573974609375	0		2.985889892578125	-0.33051055908203125	0		4.5645380859375	0.09820761108398438	0		5.6012578125	0.18648455810546874	0		-0.40940103149414064	5.88470166015625	0		
-0.022491409301757814	0.0040589628219604495	0		0.4612476501464844	-2.470466552734375	0		-1.1848570556640625	0.060237125396728514	0		-0.8262849731445312	-2.732681640625	0		1.34781201171875	-0.9009059448242187	0		2.990296142578125	-0.33829876708984374	0		4.564115234375	0.09719390869140625	0		5.5937890625	0.18465151977539063	0		-0.2603553161621094	5.91466748046875	0		
0.019103778839111327	3.247379958629608E-4	0		0.4993284912109375	-2.4782509765625	0		-1.1811553955078125	0.0642222671508789	0		-0.8590614624023437	-2.725286865234375	0		1.3564134521484374	-0.8914599609375	0		3.013213134765625	-0.31334600830078124	0		4.57582275390625	0.10000061798095704	0		5.6035595703125	0.19434439086914063	0		-0.39192025756835935	5.892283203125	0		
-0.015154410362243652	0.002589484930038452	0		0.4876600036621094	-2.472384765625	0		-1.1954571533203124	0.062442535400390624	0		-0.803889404296875	-2.72806640625	0		1.3468255615234375	-0.901779052734375	0		2.9876806640625	-0.3277586669921875	0		4.56267529296875	0.10813352966308594	0		5.600412109375	0.18022096252441405	0		-0.4062297668457031	5.88337060546875	0		
0.006570816993713379	-0.0018981599807739258	0		0.5088899841308594	-2.47996435546875	0		-1.1897330322265625	0.05738945388793945	0		-0.8415919799804688	-2.726606689453125	0		1.344400634765625	-0.905190185546875	0		2.98740185546875	-0.32849859619140626	0		4.57329833984375	0.09395591735839844	0		5.593130859375	0.18356059265136718	0		-0.2730675048828125	5.904455078125	0		
-0.018566871643066408	-7.475330233573913E-4	0		0.456367431640625	-2.474531494140625	0		-1.1939310302734376	0.05346464920043945	0		-0.7994434204101563	-2.74224072265625	0		1.34408544921875	-0.9056231079101562	0		2.987189453125	-0.32922494506835936	0		4.56316259765625	0.09308419799804687	0		5.59299951171875	0.18152366638183592	0		-0.2721664733886719	5.904310546875	0		
0.03132246971130371	-0.002634577989578247	0		0.4578918151855469	-2.47183056640625	0		-1.1859166259765626	0.06036532592773437	0		-0.8648328247070313	-2.72938916015625	0		1.345879638671875	-0.9030747680664063	0		3.006220703125	-0.317197509765625	0		4.57716943359375	0.09791106414794921	0		5.60001513671875	0.17411979675292968	0		-0.38939874267578123	5.89381396484375	0		
0.004403961181640625	0.005551328182220459	0		0.4605076904296875	-2.46813818359375	0		-1.1818843994140624	0.0643139419555664	0		-0.7954072265625	-2.736424560546875	0		1.3487535400390624	-0.8995283813476562	0		2.9900234375	-0.3256546936035156	0		4.57123681640625	0.10305287170410156	0		5.5957919921875	0.1896654815673828	0		-0.25615142822265624	5.9148212890625	0		
0.006308370113372803	-0.002661633014678955	0		0.4570823974609375	-2.4723515625	0		-1.1899554443359375	0.05742945098876953	0		-0.8677532348632813	-2.73145654296875	0		1.3455738525390626	-0.903880859375	0		3.015073486328125	-0.3206650390625	0		4.5771845703125	0.09606751251220703	0		5.5928623046875	0.1758419952392578	0		-0.3875223083496094	5.893564453125	0		
-0.01557063102722168	0.0014770200252532959	0		0.480701416015625	-2.477942626953125	0		-1.189885498046875	0.05742897033691406	0		-0.84605712890625	-2.72882275390625	0		1.3396024169921874	-0.8971725463867187	0		2.990003173828125	-0.32692953491210935	0		4.56726123046875	0.09535356903076173	0		5.59288720703125	0.17411659240722657	0		-0.2684234924316406	5.903740234375	0		
0.0015383119583129883	0.0020628530979156495	0		0.4544791564941406	-2.475800537109375	0		-1.1938392333984376	0.05348727035522461	0		-0.8724459228515625	-2.7354921875	0		1.337528076171875	-0.9005009155273438	0		2.9820830078125	-0.3254042053222656	0		4.57328271484375	0.08845288848876953	0		5.5929384765625	0.1724775085449219	0		-0.3866409912109375	5.89434521484375	0		
0.009645526885986327	7.871710062026978E-4	0		0.46517926025390627	-2.4821806640625	0		-1.185607421875	0.060371486663818356	0		-0.866603759765625	-2.72962158203125	0		1.3075621337890626	-0.8983977661132813	0		2.981029296875	-0.334947509765625	0		4.57159375	0.09970801544189453	0		5.59593505859375	0.18292864990234375	0		-0.3847405700683594	5.893224609375	0		
-0.01116624927520752	0.003951127052307129	0		0.46122528076171876	-2.46732861328125	0		-1.1813995361328125	0.06431771087646485	0		-0.8637533569335938	-2.725701416015625	0		1.3546424560546875	-0.8954090576171875	0		3.02734521484375	-0.32115972900390627	0		4.57174755859375	0.09897589874267577	0		5.600193359375	0.16400038146972656	0		-0.41694390869140624	5.8866181640625	0		
0.0049996299743652346	0.004579781055450439	0		0.5078917541503907	-2.4802197265625	0		-1.1202911376953124	0.060416534423828126	0		-0.8320419311523437	-2.733207275390625	0		1.3396422119140625	-0.89848291015625	0		2.985447998046875	-0.32203408813476564	0		4.56782275390625	0.09234534454345703	0		5.5931865234375	0.16805230712890626	0		-0.3839574279785156	5.89405615234375	0		
-0.017947071075439452	-0.0021938478946685793	0		0.455857666015625	-2.47361572265625	0		-1.19324072265625	0.053526420593261716	0		-0.8342315063476563	-2.735201416015625	0		1.337649169921875	-0.9017274780273438	0		2.982491455078125	-0.3274531860351563	0		4.56309521484375	0.09877249145507813	0		5.59328271484375	0.16674368286132812	0		-0.26396957397460935	5.90318505859375	0		
0.00718732500076294	-0.0036794180870056152	0		0.5056157836914063	-2.48253125	0		-1.193082275390625	0.05354726791381836	0		-0.8693248291015625	-2.731688232421875	0		1.339749755859375	-0.8990108642578125	0		2.987501953125	-0.3349587707519531	0		4.56406103515625	0.08515748596191407	0		5.59043798828125	0.15179241943359376	0		-0.24901347351074218	5.9138916015625	0		
-0.014604701042175292	5.594819784164428E-4	0		0.44057965087890627	-2.477685302734375	0		-1.184826171875	0.06044803237915039	0		-0.8324743041992188	-2.73326220703125	0		1.3456964111328125	-0.9063324584960938	0		3.006809326171875	-0.3226469421386719	0		4.572396484375	0.09647905731201172	0		5.58704931640625	0.16463890075683593	0		-0.3815950927734375	5.89385546875	0		
0.010525057792663575	9.251099824905395E-5	0		0.4845538024902344	-2.4734873046875	0		-1.180626953125	0.06441214752197266	0		-0.8665147094726563	-2.727746826171875	0		1.34289892578125	-0.8964965209960938	0		2.985899169921875	-0.32368731689453123	0		4.567646484375	0.10304631805419921	0		5.59355029296875	0.1633695831298828	0		-0.41500311279296875	5.888330078125	0		
-0.019276493072509764	0.0054830322265625	0		0.45747946166992187	-2.472182861328125	0		-1.184565185546875	0.06050323104858398	0		-0.8086362915039063	-2.728641357421875	0		1.3398941650390626	-0.8996358642578125	0		3.015969970703125	-0.3254768981933594	0		4.5726640625	0.09550924682617187	0		5.59362353515625	0.16243344116210937	0		-0.24598692321777343	5.912693359375	0		
0.00768110990524292	-0.0039934470653533935	0		0.48130877685546875	-2.47764990234375	0		-1.1984896240234375	0.05875259780883789	0		-0.8806753540039063	-2.7235205078125	0		1.3378787841796875	-0.9027672119140625	0		2.986064453125	-0.3243027954101563	0		4.578677734375	0.08900503540039062	0		5.5865751953125	0.1653241729736328	0		-0.2464156951904297	5.91366845703125	0		
-0.017218595504760743	-0.0026517710685729982	0		0.4532236328125	-2.4772939453125	0		-1.192482421875	0.05369425201416016	0		-0.8020400390625	-2.740738525390625	0		1.3378985595703126	-0.9029070434570312	0		2.97409423828125	-0.32636849975585935	0		4.5687666015625	0.08879830169677734	0		5.59079296875	0.14712660217285156	0		-0.24592692565917967	5.91363720703125	0		
0.007826333045959472	-0.0040782828330993654	0		0.45721389770507814	-2.4724208984375	0		-1.184306640625	0.06060489654541015	0		-0.901896484375	-2.724160888671875	0		1.345843505859375	-0.907149658203125	0		2.9910576171875	-0.3318520202636719	0		4.5768037109375	0.08635794830322266	0		5.590830078125	0.14648173522949218	0		-0.3778457946777344	5.89268701171875	0		
-0.006952094078063965	0.007131884098052979	0		0.4601891479492187	-2.468517333984375	0		-1.1801939697265624	0.06458200073242187	0		-0.8280380249023438	-2.727298828125	0		1.3429989013671875	-0.89720068359375	0		2.993353759765625	-0.31507186889648436	0		4.5668564453125	0.08624272155761718	0		5.5967294921875	0.1716520233154297	0		-0.362339111328125	5.90144677734375	0		
0.010967649459838868	-1.6172899305820466E-4	0		0.45703945922851563	-2.472502685546875	0		-1.1882681884765625	0.05775491333007812	0		-0.8790523071289063	-2.72146630859375	0		1.3378936767578125	-0.9031968383789063	0		2.98313525390625	-0.330067626953125	0		4.5781279296875	0.10083625030517578	0		5.5908720703125	0.14544425964355467	0		-0.378146728515625	5.89370654296875	0		
-0.01893073081970215	0.005313539981842041	0		0.48087152099609376	-2.47789892578125	0		-1.1923096923828125	0.05387102508544922	0		-0.8092523193359376	-2.728532958984375	0		1.337874267578125	-0.90325146484375	0		2.977267333984375	-0.3220980224609375	0		4.56405810546875	0.09486653137207031	0		5.59087939453125	0.145044189453125	0		-0.24454713439941406	5.913619140625	0		
0.007931265830993652	-0.004097843170166015	0		0.45483966064453124	-2.474489990234375	0		-1.1922999267578125	0.053929218292236326	0		-0.8703998413085937	-2.731521728515625	0		1.3378489990234375	-0.90328564453125	0		2.988024169921875	-0.337364501953125	0		4.56895751953125	0.08763618469238281	0		5.58794873046875	0.13272270202636718	0		-0.2443233947753906	5.913642578125	0		
-0.017049890518188476	-0.002674752950668335	0		0.4567946166992187	-2.472509521484375	0		-1.1882352294921874	0.057928581237792966	0		-0.8335048828125	-2.733055419921875	0		1.339868408203125	-0.9003326416015625	0		2.97725341796875	-0.3222575988769531	0		4.562056640625	0.09363185119628906	0		5.5908759765625	0.14447273254394533	0		-0.37648919677734377	5.892775390625	0		
0.006054912090301514	0.00399682092666626	0		0.4577591857910156	-2.470499755859375	0		-1.1801270751953126	0.0648688201904297	0		-0.8654633178710938	-2.72548828125	0		1.339841796875	-0.9003292846679688	0		2.983113525390625	-0.3303907470703125	0		4.5730537109375	0.09337741088867188	0		5.58964794921875	0.175484130859375	0		-0.4114163208007813	5.88838037109375	0		
0.007925601005554199	-0.003985408067703247	0		0.5085726013183594	-2.479271484375	0		-1.192301025390625	0.05413437652587891	0		-0.8336368408203125	-2.732930419921875	0		1.330870361328125	-0.8971652221679688	0		2.98618408203125	-0.32545196533203125	0		4.57305419921875	0.09333180236816406	0		5.5908662109375	0.14418072509765625	0		-0.242887939453125	5.9127587890625	0		
0.010993955612182617	2.5561999529600145E-5	0		0.4546102600097656	-2.474359619140625	0		-1.192295166015625	0.05421207046508789	0		-0.8445447998046876	-2.724683837890625	0		1.3288140869140626	-0.9000939331054687	0		3.012085205078125	-0.33185198974609376	0		4.574076171875	0.0943050537109375	0		5.5908671875	0.14413737487792969	0		-0.24377618408203125	5.913837890625	0		
0.0030261440277099608	0.0012229290008544922	0		0.48054962158203124	-2.47770849609375	0		-1.1922794189453125	0.054293987274169925	0		-0.8706651000976563	-2.73118994140625	0		1.3347078857421875	-0.9071320190429687	0		2.974165771484375	-0.3272065124511719	0		4.5689814453125	0.08741001892089843	0		5.58671142578125	0.16162667846679687	0		-0.243701904296875	5.91391015625	0		
0.011035987854003906	1.7601500451564788E-4	0		0.4395531005859375	-2.47797607421875	0		-1.1841417236328124	0.06125213241577149	0		-0.8567337036132813	-2.73632763671875	0		1.3377935791015625	-0.9031065673828125	0		2.9849501953125	-0.34231460571289063	0		4.57697607421875	0.08534002685546875	0		5.5908955078125	0.1442543182373047	0		-0.4091026611328125	5.88662841796875	0		
